<svg width="33" height="33" viewBox="0 0 33 33" fill="none" xmlns="http://www.w3.org/2000/svg">
<path d="M22.3 17.8052V23.8952C22.3 28.9702 20.27 31.0002 15.195 31.0002H9.105C4.03 31.0002 2 28.9702 2 23.8952V17.8052C2 12.7302 4.03 10.7002 9.105 10.7002H15.195C20.27 10.7002 22.3 12.7302 22.3 17.8052Z" stroke="#A4A4A4" stroke-width="3" stroke-linecap="round" stroke-linejoin="round"/>
<path d="M31 9.105V15.195C31 20.27 28.97 22.3 23.895 22.3H22.3V17.805C22.3 12.73 20.27 10.7 15.195 10.7H10.7V9.105C10.7 4.03 12.73 2 17.805 2H23.895C28.97 2 31 4.03 31 9.105Z" stroke="#A4A4A4" stroke-width="3" stroke-linecap="round" stroke-linejoin="round"/>
</svg>
