<svg width="134" height="134" viewBox="0 0 134 134" fill="none" xmlns="http://www.w3.org/2000/svg">
<rect width="134" height="134" rx="67" fill="#D9D9D9"/>
<path d="M19.9133 68.2022C19.9133 67.0422 20.1467 66.0289 20.6133 65.1622C21.0933 64.2956 21.7533 63.6289 22.5933 63.1622C23.4467 62.6956 24.42 62.4622 25.5133 62.4622C26.9133 62.4622 28.08 62.8289 29.0133 63.5622C29.96 64.2956 30.58 65.3289 30.8733 66.6622H27.2333C26.9267 65.8089 26.3333 65.3822 25.4533 65.3822C24.8267 65.3822 24.3267 65.6289 23.9533 66.1222C23.58 66.6022 23.3933 67.2956 23.3933 68.2022C23.3933 69.1089 23.58 69.8089 23.9533 70.3022C24.3267 70.7822 24.8267 71.0222 25.4533 71.0222C26.3333 71.0222 26.9267 70.5956 27.2333 69.7422H30.8733C30.58 71.0489 29.96 72.0756 29.0133 72.8222C28.0667 73.5689 26.9 73.9422 25.5133 73.9422C24.42 73.9422 23.4467 73.7089 22.5933 73.2422C21.7533 72.7756 21.0933 72.1089 20.6133 71.2422C20.1467 70.3756 19.9133 69.3622 19.9133 68.2022ZM36.1227 58.9822V73.7822H32.7027V58.9822H36.1227ZM49.6211 62.6222V73.7822H46.2011V72.2622C45.8545 72.7556 45.3811 73.1556 44.7811 73.4622C44.1945 73.7556 43.5411 73.9022 42.8211 73.9022C41.9678 73.9022 41.2145 73.7156 40.5611 73.3422C39.9078 72.9556 39.4011 72.4022 39.0411 71.6822C38.6811 70.9622 38.5011 70.1156 38.5011 69.1422V62.6222H41.9011V68.6822C41.9011 69.4289 42.0945 70.0089 42.4811 70.4222C42.8678 70.8356 43.3878 71.0422 44.0411 71.0422C44.7078 71.0422 45.2345 70.8356 45.6211 70.4222C46.0078 70.0089 46.2011 69.4289 46.2011 68.6822V62.6222H49.6211ZM55.4977 64.2022C55.8177 63.6822 56.2777 63.2622 56.8777 62.9422C57.4777 62.6222 58.1644 62.4622 58.9377 62.4622C59.8577 62.4622 60.691 62.6956 61.4377 63.1622C62.1844 63.6289 62.771 64.2956 63.1977 65.1622C63.6377 66.0289 63.8577 67.0356 63.8577 68.1822C63.8577 69.3289 63.6377 70.3422 63.1977 71.2222C62.771 72.0889 62.1844 72.7622 61.4377 73.2422C60.691 73.7089 59.8577 73.9422 58.9377 73.9422C58.151 73.9422 57.4644 73.7889 56.8777 73.4822C56.291 73.1622 55.831 72.7422 55.4977 72.2222V73.7822H52.0777V58.9822H55.4977V64.2022ZM60.3777 68.1822C60.3777 67.3289 60.1377 66.6622 59.6577 66.1822C59.191 65.6889 58.611 65.4422 57.9177 65.4422C57.2377 65.4422 56.6577 65.6889 56.1777 66.1822C55.711 66.6756 55.4777 67.3489 55.4777 68.2022C55.4777 69.0556 55.711 69.7289 56.1777 70.2222C56.6577 70.7156 57.2377 70.9622 57.9177 70.9622C58.5977 70.9622 59.1777 70.7156 59.6577 70.2222C60.1377 69.7156 60.3777 69.0356 60.3777 68.1822ZM73.3102 58.9822V73.7822H69.8902V58.9822H73.3102ZM80.8686 73.9422C79.7753 73.9422 78.7886 73.7089 77.9086 73.2422C77.042 72.7756 76.3553 72.1089 75.8486 71.2422C75.3553 70.3756 75.1086 69.3622 75.1086 68.2022C75.1086 67.0556 75.362 66.0489 75.8686 65.1822C76.3753 64.3022 77.0686 63.6289 77.9486 63.1622C78.8286 62.6956 79.8153 62.4622 80.9086 62.4622C82.002 62.4622 82.9886 62.6956 83.8686 63.1622C84.7486 63.6289 85.442 64.3022 85.9486 65.1822C86.4553 66.0489 86.7086 67.0556 86.7086 68.2022C86.7086 69.3489 86.4486 70.3622 85.9286 71.2422C85.422 72.1089 84.722 72.7756 83.8286 73.2422C82.9486 73.7089 81.962 73.9422 80.8686 73.9422ZM80.8686 70.9822C81.522 70.9822 82.0753 70.7422 82.5286 70.2622C82.9953 69.7822 83.2286 69.0956 83.2286 68.2022C83.2286 67.3089 83.002 66.6222 82.5486 66.1422C82.1086 65.6622 81.562 65.4222 80.9086 65.4222C80.242 65.4222 79.6886 65.6622 79.2486 66.1422C78.8086 66.6089 78.5886 67.2956 78.5886 68.2022C78.5886 69.0956 78.802 69.7822 79.2286 70.2622C79.6686 70.7422 80.2153 70.9822 80.8686 70.9822ZM92.763 62.4622C93.5497 62.4622 94.2363 62.6222 94.823 62.9422C95.423 63.2622 95.883 63.6822 96.203 64.2022V62.6222H99.623V73.7622C99.623 74.7889 99.4163 75.7156 99.003 76.5422C98.603 77.3822 97.983 78.0489 97.143 78.5422C96.3163 79.0356 95.283 79.2822 94.043 79.2822C92.3897 79.2822 91.0497 78.8889 90.023 78.1022C88.9963 77.3289 88.4097 76.2756 88.263 74.9422H91.643C91.7497 75.3689 92.003 75.7022 92.403 75.9422C92.803 76.1956 93.2963 76.3222 93.883 76.3222C94.5897 76.3222 95.1497 76.1156 95.563 75.7022C95.9897 75.3022 96.203 74.6556 96.203 73.7622V72.1822C95.8697 72.7022 95.4097 73.1289 94.823 73.4622C94.2363 73.7822 93.5497 73.9422 92.763 73.9422C91.843 73.9422 91.0097 73.7089 90.263 73.2422C89.5163 72.7622 88.923 72.0889 88.483 71.2222C88.0563 70.3422 87.843 69.3289 87.843 68.1822C87.843 67.0356 88.0563 66.0289 88.483 65.1622C88.923 64.2956 89.5163 63.6289 90.263 63.1622C91.0097 62.6956 91.843 62.4622 92.763 62.4622ZM96.203 68.2022C96.203 67.3489 95.963 66.6756 95.483 66.1822C95.0163 65.6889 94.443 65.4422 93.763 65.4422C93.083 65.4422 92.503 65.6889 92.023 66.1822C91.5563 66.6622 91.323 67.3289 91.323 68.1822C91.323 69.0356 91.5563 69.7156 92.023 70.2222C92.503 70.7156 93.083 70.9622 93.763 70.9622C94.443 70.9622 95.0163 70.7156 95.483 70.2222C95.963 69.7289 96.203 69.0556 96.203 68.2022ZM107.177 73.9422C106.084 73.9422 105.097 73.7089 104.217 73.2422C103.351 72.7756 102.664 72.1089 102.157 71.2422C101.664 70.3756 101.417 69.3622 101.417 68.2022C101.417 67.0556 101.671 66.0489 102.177 65.1822C102.684 64.3022 103.377 63.6289 104.257 63.1622C105.137 62.6956 106.124 62.4622 107.217 62.4622C108.311 62.4622 109.297 62.6956 110.177 63.1622C111.057 63.6289 111.751 64.3022 112.257 65.1822C112.764 66.0489 113.017 67.0556 113.017 68.2022C113.017 69.3489 112.757 70.3622 112.237 71.2422C111.731 72.1089 111.031 72.7756 110.137 73.2422C109.257 73.7089 108.271 73.9422 107.177 73.9422ZM107.177 70.9822C107.831 70.9822 108.384 70.7422 108.837 70.2622C109.304 69.7822 109.537 69.0956 109.537 68.2022C109.537 67.3089 109.311 66.6222 108.857 66.1422C108.417 65.6622 107.871 65.4222 107.217 65.4222C106.551 65.4222 105.997 65.6622 105.557 66.1422C105.117 66.6089 104.897 67.2956 104.897 68.2022C104.897 69.0956 105.111 69.7822 105.537 70.2622C105.977 70.7422 106.524 70.9822 107.177 70.9822Z" fill="#606060"/>
<rect width="134" height="134" rx="10" fill="#D9D9D9"/>
<path d="M19.9133 68.2022C19.9133 67.0422 20.1467 66.0289 20.6133 65.1622C21.0933 64.2956 21.7533 63.6289 22.5933 63.1622C23.4467 62.6956 24.42 62.4622 25.5133 62.4622C26.9133 62.4622 28.08 62.8289 29.0133 63.5622C29.96 64.2956 30.58 65.3289 30.8733 66.6622H27.2333C26.9267 65.8089 26.3333 65.3822 25.4533 65.3822C24.8267 65.3822 24.3267 65.6289 23.9533 66.1222C23.58 66.6022 23.3933 67.2956 23.3933 68.2022C23.3933 69.1089 23.58 69.8089 23.9533 70.3022C24.3267 70.7822 24.8267 71.0222 25.4533 71.0222C26.3333 71.0222 26.9267 70.5956 27.2333 69.7422H30.8733C30.58 71.0489 29.96 72.0756 29.0133 72.8222C28.0667 73.5689 26.9 73.9422 25.5133 73.9422C24.42 73.9422 23.4467 73.7089 22.5933 73.2422C21.7533 72.7756 21.0933 72.1089 20.6133 71.2422C20.1467 70.3756 19.9133 69.3622 19.9133 68.2022ZM36.1227 58.9822V73.7822H32.7027V58.9822H36.1227ZM49.6211 62.6222V73.7822H46.2011V72.2622C45.8545 72.7556 45.3811 73.1556 44.7811 73.4622C44.1945 73.7556 43.5411 73.9022 42.8211 73.9022C41.9678 73.9022 41.2145 73.7156 40.5611 73.3422C39.9078 72.9556 39.4011 72.4022 39.0411 71.6822C38.6811 70.9622 38.5011 70.1156 38.5011 69.1422V62.6222H41.9011V68.6822C41.9011 69.4289 42.0945 70.0089 42.4811 70.4222C42.8678 70.8356 43.3878 71.0422 44.0411 71.0422C44.7078 71.0422 45.2345 70.8356 45.6211 70.4222C46.0078 70.0089 46.2011 69.4289 46.2011 68.6822V62.6222H49.6211ZM55.4977 64.2022C55.8177 63.6822 56.2777 63.2622 56.8777 62.9422C57.4777 62.6222 58.1644 62.4622 58.9377 62.4622C59.8577 62.4622 60.691 62.6956 61.4377 63.1622C62.1844 63.6289 62.771 64.2956 63.1977 65.1622C63.6377 66.0289 63.8577 67.0356 63.8577 68.1822C63.8577 69.3289 63.6377 70.3422 63.1977 71.2222C62.771 72.0889 62.1844 72.7622 61.4377 73.2422C60.691 73.7089 59.8577 73.9422 58.9377 73.9422C58.151 73.9422 57.4644 73.7889 56.8777 73.4822C56.291 73.1622 55.831 72.7422 55.4977 72.2222V73.7822H52.0777V58.9822H55.4977V64.2022ZM60.3777 68.1822C60.3777 67.3289 60.1377 66.6622 59.6577 66.1822C59.191 65.6889 58.611 65.4422 57.9177 65.4422C57.2377 65.4422 56.6577 65.6889 56.1777 66.1822C55.711 66.6756 55.4777 67.3489 55.4777 68.2022C55.4777 69.0556 55.711 69.7289 56.1777 70.2222C56.6577 70.7156 57.2377 70.9622 57.9177 70.9622C58.5977 70.9622 59.1777 70.7156 59.6577 70.2222C60.1377 69.7156 60.3777 69.0356 60.3777 68.1822ZM73.3102 58.9822V73.7822H69.8902V58.9822H73.3102ZM80.8686 73.9422C79.7753 73.9422 78.7886 73.7089 77.9086 73.2422C77.042 72.7756 76.3553 72.1089 75.8486 71.2422C75.3553 70.3756 75.1086 69.3622 75.1086 68.2022C75.1086 67.0556 75.362 66.0489 75.8686 65.1822C76.3753 64.3022 77.0686 63.6289 77.9486 63.1622C78.8286 62.6956 79.8153 62.4622 80.9086 62.4622C82.002 62.4622 82.9886 62.6956 83.8686 63.1622C84.7486 63.6289 85.442 64.3022 85.9486 65.1822C86.4553 66.0489 86.7086 67.0556 86.7086 68.2022C86.7086 69.3489 86.4486 70.3622 85.9286 71.2422C85.422 72.1089 84.722 72.7756 83.8286 73.2422C82.9486 73.7089 81.962 73.9422 80.8686 73.9422ZM80.8686 70.9822C81.522 70.9822 82.0753 70.7422 82.5286 70.2622C82.9953 69.7822 83.2286 69.0956 83.2286 68.2022C83.2286 67.3089 83.002 66.6222 82.5486 66.1422C82.1086 65.6622 81.562 65.4222 80.9086 65.4222C80.242 65.4222 79.6886 65.6622 79.2486 66.1422C78.8086 66.6089 78.5886 67.2956 78.5886 68.2022C78.5886 69.0956 78.802 69.7822 79.2286 70.2622C79.6686 70.7422 80.2153 70.9822 80.8686 70.9822ZM92.763 62.4622C93.5497 62.4622 94.2363 62.6222 94.823 62.9422C95.423 63.2622 95.883 63.6822 96.203 64.2022V62.6222H99.623V73.7622C99.623 74.7889 99.4163 75.7156 99.003 76.5422C98.603 77.3822 97.983 78.0489 97.143 78.5422C96.3163 79.0356 95.283 79.2822 94.043 79.2822C92.3897 79.2822 91.0497 78.8889 90.023 78.1022C88.9963 77.3289 88.4097 76.2756 88.263 74.9422H91.643C91.7497 75.3689 92.003 75.7022 92.403 75.9422C92.803 76.1956 93.2963 76.3222 93.883 76.3222C94.5897 76.3222 95.1497 76.1156 95.563 75.7022C95.9897 75.3022 96.203 74.6556 96.203 73.7622V72.1822C95.8697 72.7022 95.4097 73.1289 94.823 73.4622C94.2363 73.7822 93.5497 73.9422 92.763 73.9422C91.843 73.9422 91.0097 73.7089 90.263 73.2422C89.5163 72.7622 88.923 72.0889 88.483 71.2222C88.0563 70.3422 87.843 69.3289 87.843 68.1822C87.843 67.0356 88.0563 66.0289 88.483 65.1622C88.923 64.2956 89.5163 63.6289 90.263 63.1622C91.0097 62.6956 91.843 62.4622 92.763 62.4622ZM96.203 68.2022C96.203 67.3489 95.963 66.6756 95.483 66.1822C95.0163 65.6889 94.443 65.4422 93.763 65.4422C93.083 65.4422 92.503 65.6889 92.023 66.1822C91.5563 66.6622 91.323 67.3289 91.323 68.1822C91.323 69.0356 91.5563 69.7156 92.023 70.2222C92.503 70.7156 93.083 70.9622 93.763 70.9622C94.443 70.9622 95.0163 70.7156 95.483 70.2222C95.963 69.7289 96.203 69.0556 96.203 68.2022ZM107.177 73.9422C106.084 73.9422 105.097 73.7089 104.217 73.2422C103.351 72.7756 102.664 72.1089 102.157 71.2422C101.664 70.3756 101.417 69.3622 101.417 68.2022C101.417 67.0556 101.671 66.0489 102.177 65.1822C102.684 64.3022 103.377 63.6289 104.257 63.1622C105.137 62.6956 106.124 62.4622 107.217 62.4622C108.311 62.4622 109.297 62.6956 110.177 63.1622C111.057 63.6289 111.751 64.3022 112.257 65.1822C112.764 66.0489 113.017 67.0556 113.017 68.2022C113.017 69.3489 112.757 70.3622 112.237 71.2422C111.731 72.1089 111.031 72.7756 110.137 73.2422C109.257 73.7089 108.271 73.9422 107.177 73.9422ZM107.177 70.9822C107.831 70.9822 108.384 70.7422 108.837 70.2622C109.304 69.7822 109.537 69.0956 109.537 68.2022C109.537 67.3089 109.311 66.6222 108.857 66.1422C108.417 65.6622 107.871 65.4222 107.217 65.4222C106.551 65.4222 105.997 65.6622 105.557 66.1422C105.117 66.6089 104.897 67.2956 104.897 68.2022C104.897 69.0956 105.111 69.7822 105.537 70.2622C105.977 70.7422 106.524 70.9822 107.177 70.9822Z" fill="#606060"/>
</svg>
