<svg width="16" height="16" viewBox="0 0 16 16" fill="none" xmlns="http://www.w3.org/2000/svg">
<circle cx="8" cy="8" r="7.5" transform="rotate(-180 8 8)" stroke="#FF0000"/>
<path d="M8.56278 4L8.56278 8.806L7.43778 8.806L7.43778 4L8.56278 4ZM7.99578 9.598C8.20578 9.598 8.37978 9.664 8.51778 9.796C8.64978 9.928 8.71578 10.087 8.71578 10.273C8.71578 10.465 8.64978 10.624 8.51778 10.75C8.37978 10.882 8.20578 10.948 7.99578 10.948C7.78578 10.948 7.61478 10.885 7.48278 10.759C7.34478 10.639 7.27578 10.486 7.27578 10.3C7.27578 10.102 7.34178 9.934 7.47378 9.796C7.60578 9.664 7.77978 9.598 7.99578 9.598Z" fill="#FF0000"/>
</svg>
