<svg width="817" height="489" viewBox="0 0 817 489" fill="none" xmlns="http://www.w3.org/2000/svg">
<path d="M625.514 482.928C615.054 474.09 608.701 460.128 610.367 446.536C612.033 432.943 622.353 420.448 635.74 417.562C649.126 414.675 664.385 422.665 668.451 435.742C670.689 410.531 673.267 384.263 686.671 362.794C698.808 343.354 719.829 329.444 742.611 326.955C765.393 324.467 789.38 333.866 803.588 351.847C817.796 369.829 821.275 395.97 811.324 416.615C803.993 431.823 790.488 443.141 776.337 452.349C730.612 481.852 675.77 493.849 621.902 486.134L625.514 482.928Z" fill="#86869D"/>
<path d="M781.059 334.387C762.261 349.698 745.016 366.822 729.573 385.512C705.405 414.662 685.848 447.344 671.583 482.42C670.539 484.979 674.694 486.093 675.727 483.562C699.066 426.557 736.326 376.312 784.098 337.425C786.243 335.678 783.187 332.654 781.059 334.387Z" fill="white"/>
<path d="M263.006 480.527C277.372 468.387 286.098 449.21 283.81 430.541C281.522 411.873 267.347 394.71 248.961 390.746C230.575 386.781 209.616 397.755 204.031 415.716C200.958 381.089 197.417 345.011 179.007 315.522C162.337 288.822 133.464 269.716 102.173 266.298C70.8819 262.88 37.9362 275.789 18.4211 300.487C-1.09412 325.185 -5.87233 361.09 7.79559 389.445C17.8643 410.333 36.4143 425.879 55.8502 438.526C117.857 478.873 194.777 495.701 267.967 484.93" fill="#86869D"/>
<path d="M49.3644 276.505C75.1835 297.535 98.8698 321.055 120.081 346.726C141.295 372.37 159.972 400.012 175.849 429.262C184.724 445.671 192.696 462.551 199.73 479.828C201.164 483.343 195.457 484.873 194.039 481.397C181.58 450.938 166.165 421.772 148.016 394.319C129.955 366.966 109.283 341.429 86.2911 318.067C73.2868 304.86 59.566 292.379 45.1911 280.678C42.2446 278.279 46.4423 274.125 49.3644 276.505Z" fill="white"/>
<path d="M586.456 487.383H243.691V135.697C243.691 60.8733 304.565 0 379.388 0H450.759C525.582 0 586.456 60.8733 586.456 135.697V487.383Z" fill="#86869D"/>
<path d="M515.086 487.383H243.691V135.697C243.616 107.026 252.695 79.0802 269.606 55.9276C270.229 55.0779 270.851 54.2392 271.492 53.4097C279.672 42.6817 289.406 33.2338 300.373 25.3777C300.992 24.9269 301.614 24.484 302.246 24.041C311.423 17.6904 321.35 12.4989 331.801 8.58469C332.421 8.34946 333.053 8.11377 333.685 7.88771C343.137 4.5146 352.935 2.20404 362.898 0.998685C363.516 0.914308 364.15 0.848283 364.784 0.782256C374.493 -0.255869 384.286 -0.255869 393.995 0.782256C394.627 0.848283 395.261 0.9143 395.886 0.999588C405.847 2.20502 415.642 4.5153 425.092 7.88775C425.724 8.11381 426.356 8.34949 426.978 8.58518C437.3 12.45 447.111 17.5641 456.19 23.8131C456.82 24.2465 457.452 24.6894 458.074 25.1323C464.221 29.5204 469.995 34.409 475.338 39.7482C479.622 44.0308 483.614 48.5958 487.287 53.4125C487.926 54.2393 488.548 55.0779 489.17 55.9262C506.081 79.0791 515.16 107.026 515.086 135.697V487.383Z" fill="#CCCCCC"/>
<path d="M493.017 330.087C501.315 330.087 508.043 323.36 508.043 315.062C508.043 306.763 501.315 300.036 493.017 300.036C484.719 300.036 477.992 306.763 477.992 315.062C477.992 323.36 484.719 330.087 493.017 330.087Z" fill="#087DF1"/>
<path d="M558.376 476.849H546.863L541.386 432.442L558.378 432.443L558.376 476.849Z" fill="#FFB8B8"/>
<path d="M538.639 473.559H560.843V487.539H524.659C524.659 485.703 525.021 483.886 525.724 482.189C526.426 480.493 527.456 478.952 528.754 477.654C530.052 476.356 531.593 475.326 533.29 474.623C534.986 473.921 536.804 473.559 538.639 473.559Z" fill="#2F2E41"/>
<path d="M615.66 476.849H604.147L598.669 432.442L615.662 432.443L615.66 476.849Z" fill="#FFB8B8"/>
<path d="M595.923 473.559H618.127V487.539H581.943C581.943 485.703 582.305 483.886 583.008 482.189C583.71 480.493 584.74 478.952 586.038 477.654C587.336 476.356 588.877 475.326 590.573 474.623C592.27 473.921 594.087 473.559 595.923 473.559Z" fill="#2F2E41"/>
<path d="M500.622 318.038C499.793 316.818 499.243 315.431 499.009 313.975C498.774 312.518 498.862 311.029 499.266 309.61C499.67 308.192 500.38 306.879 501.346 305.765C502.312 304.65 503.511 303.761 504.857 303.16L543.994 195.291L563.252 205.801L518.566 308.884C519.426 311.214 519.401 313.778 518.497 316.09C517.593 318.403 515.872 320.303 513.66 321.432C511.448 322.56 508.899 322.838 506.496 322.212C504.093 321.587 502.003 320.102 500.622 318.038Z" fill="#FFB8B8"/>
<path d="M609.779 338.307C608.5 337.574 607.397 336.568 606.548 335.362C605.699 334.156 605.125 332.779 604.866 331.327C604.607 329.875 604.669 328.384 605.049 326.959C605.428 325.534 606.116 324.209 607.062 323.078L594.938 208.971L616.854 209.973L621.893 322.212C623.687 323.928 624.789 326.244 624.991 328.719C625.192 331.193 624.478 333.656 622.985 335.64C621.492 337.624 619.323 338.991 616.889 339.483C614.455 339.974 611.925 339.556 609.779 338.307Z" fill="#FFB8B8"/>
<path d="M574.817 175.311C587.555 175.311 597.881 164.984 597.881 152.246C597.881 139.508 587.555 129.181 574.817 129.181C562.078 129.181 551.752 139.508 551.752 152.246C551.752 164.984 562.078 175.311 574.817 175.311Z" fill="#FFB8B8"/>
<path d="M609.632 312.356H540.096L540.18 311.815C540.305 311.006 552.572 230.641 543.524 204.35C542.616 201.766 542.696 198.938 543.749 196.41C544.801 193.881 546.751 191.832 549.224 190.655C562.157 184.565 586.982 177.065 607.936 195.265C611.019 197.987 613.427 201.39 614.968 205.203C616.51 209.016 617.144 213.136 616.819 217.236L609.632 312.356Z" fill="#087DF1"/>
<path d="M553.451 242.518L522.145 236.167L536.82 201.393C537.698 198.025 539.876 195.143 542.876 193.378C545.877 191.614 549.454 191.112 552.825 191.982C556.195 192.852 559.082 195.023 560.854 198.019C562.625 201.015 563.136 204.592 562.274 207.964L553.451 242.518Z" fill="#087DF1"/>
<path d="M593.546 254.311L591.664 211.168C590.237 203.058 594.88 195.391 602.02 194.138C609.162 192.889 616.136 198.514 617.569 206.684L624.643 246.997L593.546 254.311Z" fill="#087DF1"/>
<path d="M607.318 307.191C618.507 349.803 619.728 403.981 616.709 463.078L601.684 461.2L574.45 348.51L559.425 463.078L542.522 462.139C537.472 400.132 532.555 346.899 540.644 311.886L607.318 307.191Z" fill="#2F2E41"/>
<path d="M590.014 170.071C585.711 174.655 577.72 172.194 577.16 165.933C577.116 165.446 577.119 164.957 577.169 164.472C577.459 161.698 579.061 159.18 578.677 156.251C578.59 155.522 578.319 154.828 577.888 154.233C574.459 149.642 566.41 156.287 563.174 152.13C561.19 149.582 563.523 145.569 562 142.72C559.99 138.961 554.038 140.815 550.305 138.756C546.152 136.465 546.4 130.093 549.134 126.217C552.468 121.49 558.314 118.968 564.087 118.604C569.86 118.241 575.594 119.801 580.983 121.902C587.107 124.288 593.18 127.587 596.948 132.971C601.531 139.52 601.972 148.323 599.68 155.98C598.286 160.638 593.528 166.328 590.014 170.071Z" fill="#2F2E41"/>
<path d="M788.81 487.987H95.4928C95.1968 487.986 94.9133 487.868 94.7043 487.658C94.4953 487.449 94.3779 487.165 94.3779 486.869C94.3779 486.573 94.4953 486.289 94.7043 486.079C94.9133 485.87 95.1968 485.752 95.4928 485.751H788.81C789.106 485.752 789.39 485.87 789.599 486.079C789.808 486.289 789.925 486.573 789.925 486.869C789.925 487.165 789.808 487.449 789.599 487.658C789.39 487.868 789.106 487.986 788.81 487.987Z" fill="#3F3D56"/>
<path d="M440.429 385.493H318.348C316.741 385.501 315.195 384.872 314.051 383.742C312.906 382.613 312.257 381.076 312.244 379.468V106.976C312.257 105.368 312.906 103.831 314.051 102.701C315.195 101.572 316.741 100.942 318.348 100.951H440.429C442.037 100.942 443.582 101.572 444.726 102.701C445.871 103.831 446.52 105.368 446.533 106.976V379.468C446.52 381.076 445.871 382.613 444.726 383.742C443.582 384.872 442.037 385.501 440.429 385.493Z" fill="white"/>
<path d="M446.533 189.121H312.244V190.999H446.533V189.121Z" fill="#CCCCCC"/>
<path d="M447.002 296.28H312.714V298.158H447.002V296.28Z" fill="#CCCCCC"/>
<path d="M356.381 100.951H354.503V386.432H356.381V100.951Z" fill="#CCCCCC"/>
<path d="M403.335 100.951H401.457V386.432H403.335V100.951Z" fill="#CCCCCC"/>
</svg>
