<svg width="126" height="126" viewBox="0 0 126 126" fill="none" xmlns="http://www.w3.org/2000/svg">
<path d="M63 0C28.2061 0 0 28.2061 0 63C0 97.7938 28.2061 126 63 126C97.7938 126 126 97.7938 126 63C126 28.2061 97.7938 0 63 0ZM101.608 101.608C92.0347 111.153 79.2508 116.791 65.7472 117.425C52.2437 118.059 38.9878 113.643 28.5624 105.037C18.1371 96.4311 11.2892 84.2521 9.3531 70.873C7.41696 57.4939 10.5313 43.8732 18.0892 32.6649C25.6471 21.4566 37.1072 13.4636 50.2365 10.2433C63.3658 7.02309 77.2237 8.80629 89.1101 15.2455C100.996 21.6846 110.06 32.3185 114.534 45.0751C119.008 57.8317 118.573 71.7971 113.313 84.2502C110.571 90.739 106.596 96.634 101.608 101.608Z" fill="#FB6E90"/>
<path d="M81.9004 79.7998H44.1004C41.7808 79.7998 39.9004 81.6802 39.9004 83.9998C39.9004 86.3194 41.7808 88.1998 44.1004 88.1998H81.9004C84.22 88.1998 86.1004 86.3194 86.1004 83.9998C86.1004 81.6802 84.22 79.7998 81.9004 79.7998Z" fill="#FB6E90"/>
<path d="M48.2997 58.8006C49.8408 57.067 49.6765 54.4049 47.9428 52.8639C46.2001 51.3148 46.0422 48.6307 47.5912 46.888C49.1322 45.1544 48.9834 42.4917 47.2498 40.9506C45.5162 39.4095 42.8542 39.5738 41.3131 41.3075C39.764 43.0502 37.08 43.2081 35.3373 41.659C33.6036 40.118 30.9409 40.2669 29.3998 42.0005C27.8587 43.7341 28.023 46.3961 29.7567 47.9372C31.4994 49.4863 31.6573 52.1703 30.1083 53.913C28.5672 55.6466 28.7161 58.3094 30.4497 59.8505C32.1833 61.3916 34.8453 61.2272 36.3864 59.4936C37.9355 57.7509 40.6195 57.5929 42.3622 59.142C44.0959 60.683 46.7586 60.5342 48.2997 58.8006Z" fill="#FB6E90"/>
<path d="M93.7914 46.888C95.3325 45.1544 95.1836 42.4917 93.45 40.9506C91.7164 39.4095 89.0544 39.5738 87.5133 41.3075C85.9642 43.0502 83.2801 43.2081 81.5375 41.659C79.8038 40.118 77.1411 40.2669 75.6 42.0005C74.0589 43.7341 74.2232 46.3961 75.9569 47.9372C77.6996 49.4863 77.8575 52.1703 76.3085 53.913C74.7674 55.6466 74.9163 58.3094 76.6499 59.8505C78.3835 61.3916 81.0455 61.2272 82.5866 59.4936C84.1357 57.7509 86.8197 57.5929 88.5624 59.142C90.2961 60.683 92.9588 60.5342 94.4999 58.8006C96.041 57.067 95.8767 54.4049 94.143 52.8639C92.4003 51.3148 92.2424 48.6307 93.7914 46.888Z" fill="#FB6E90"/>
</svg>
