<svg width="573" height="683" viewBox="0 0 573 683" fill="none" xmlns="http://www.w3.org/2000/svg">
<path d="M221.95 560.608C210.549 548.85 194.028 542.107 176.622 542.107L175.951 542.109C164.486 542.113 153.226 539.073 143.322 533.298L142.292 532.697L143.122 531.842C147.615 527.193 151.368 521.88 154.247 516.09C152.202 517.997 149.763 519.431 147.103 520.29C144.442 521.15 141.625 521.414 138.851 521.064C135.923 520.715 133.111 519.707 130.627 518.116C128.144 516.526 126.053 514.393 124.511 511.879C118.428 502.008 111.176 488.003 111.176 477.333C111.185 468.315 113.074 459.398 116.721 451.149C120.367 442.901 125.693 435.503 132.357 429.427C136.576 425.623 139.946 420.972 142.247 415.778C144.548 410.584 145.729 404.963 145.712 399.282L145.708 398.474C145.707 390.995 146.621 383.544 148.43 376.286L148.614 375.553L149.368 375.58C154.23 375.745 159.095 375.338 163.862 374.366C159.39 373.817 155.016 372.654 150.863 370.908L150.052 370.58L150.327 369.749C169.303 358 212.138 364.084 237 307.2C257.16 261.076 328.292 348.146 328.292 398.474C328.292 403.61 323.209 410.396 327.014 413.79C368.142 450.482 339.764 474.044 330.817 497.752C328.694 503.377 333.297 509.553 333.297 515.639C333.297 516.671 333.271 517.737 333.219 518.807L333.14 520.451L331.768 519.539C329.055 517.761 326.541 515.699 324.267 513.386C326.626 518.814 327.737 524.701 327.52 530.615C327.303 536.529 325.762 542.319 323.012 547.559C318.702 555.694 314.532 561.518 310.618 564.868C298.082 575.597 281.92 581.131 265.438 580.339C248.957 579.547 233.4 572.489 221.95 560.608Z" fill="#86869D"/>
<path d="M290.807 682.993C291.087 682.993 291.358 682.891 291.57 682.708C291.781 682.524 291.919 682.27 291.959 681.992C292.008 681.645 296.856 646.683 292.502 600.217C288.482 557.304 275.569 495.495 236.89 444.732C236.797 444.611 236.681 444.508 236.549 444.431C236.417 444.354 236.271 444.304 236.119 444.283C235.967 444.262 235.813 444.272 235.665 444.311C235.517 444.35 235.378 444.418 235.256 444.511C235.134 444.604 235.032 444.72 234.955 444.852C234.878 444.984 234.828 445.13 234.808 445.282C234.787 445.434 234.797 445.588 234.836 445.736C234.876 445.884 234.944 446.023 235.037 446.145C273.382 496.469 286.19 557.825 290.183 600.434C294.511 646.63 289.701 681.319 289.652 681.664C289.629 681.829 289.641 681.998 289.689 682.158C289.736 682.318 289.817 682.466 289.927 682.592C290.036 682.718 290.171 682.819 290.323 682.888C290.475 682.957 290.64 682.993 290.807 682.993Z" fill="#3F3D56"/>
<path d="M259.242 516.336C259.488 516.336 259.728 516.258 259.927 516.114C260.126 515.969 260.275 515.765 260.351 515.531C260.427 515.297 260.427 515.045 260.351 514.811C260.275 514.577 260.127 514.373 259.928 514.228C248.907 506.768 237 500.707 224.483 496.185C204.928 489.026 175.19 482.535 144.577 492.278C144.43 492.325 144.295 492.399 144.178 492.498C144.06 492.596 143.964 492.717 143.893 492.853C143.823 492.989 143.78 493.137 143.767 493.29C143.754 493.443 143.771 493.596 143.817 493.742C143.864 493.888 143.939 494.024 144.037 494.141C144.136 494.258 144.257 494.354 144.393 494.424C144.53 494.495 144.678 494.537 144.831 494.55C144.983 494.563 145.137 494.545 145.283 494.498C175.27 484.955 204.468 491.338 223.682 498.373C235.998 502.818 247.713 508.777 258.558 516.113C258.757 516.258 258.996 516.336 259.242 516.336Z" fill="#3F3D56"/>
<path d="M312.558 383.546C312.576 383.3 312.516 383.055 312.386 382.846C312.256 382.637 312.064 382.475 311.836 382.382C311.608 382.289 311.357 382.271 311.118 382.33C310.879 382.389 310.665 382.522 310.506 382.71C302.271 393.165 295.369 404.604 289.957 416.763C281.408 435.753 272.793 464.945 280.306 496.181C280.342 496.33 280.406 496.47 280.496 496.594C280.586 496.718 280.699 496.823 280.83 496.903C280.96 496.983 281.105 497.037 281.257 497.061C281.408 497.085 281.562 497.078 281.711 497.043C281.86 497.007 282 496.942 282.124 496.852C282.248 496.762 282.353 496.648 282.433 496.518C282.512 496.387 282.566 496.242 282.59 496.091C282.613 495.94 282.607 495.785 282.571 495.636C275.212 465.04 283.681 436.378 292.082 417.72C297.402 405.756 304.189 394.5 312.287 384.212C312.446 384.024 312.541 383.791 312.558 383.546Z" fill="#3F3D56"/>
<path d="M537.252 681.76H444.517L444.119 681.037C442.933 678.886 441.788 676.608 440.719 674.266C431.166 653.816 427.129 630.427 423.566 609.792L420.884 594.237C420.559 592.353 420.804 590.415 421.587 588.671C422.37 586.928 423.655 585.457 425.279 584.448C426.902 583.439 428.79 582.937 430.7 583.007C432.611 583.078 434.457 583.716 436.002 584.842C450.095 595.097 464.194 605.342 478.298 615.577C483.638 619.463 489.737 623.96 495.578 628.82C496.142 626.083 496.731 623.338 497.321 620.631C497.727 618.761 498.682 617.056 500.063 615.733C501.445 614.41 503.189 613.529 505.074 613.203C506.959 612.877 508.898 613.121 510.643 613.904C512.389 614.686 513.861 615.972 514.871 617.596L525.721 635.028C533.635 647.758 540.62 660.303 539.196 673.833C539.203 673.997 539.191 674.162 539.16 674.324C538.875 676.546 538.347 678.73 537.585 680.838L537.252 681.76Z" fill="#F0F0F0"/>
<path d="M494.047 317.184L476.15 250.941C475.384 248.137 473.545 245.747 471.032 244.286C468.519 242.825 465.531 242.411 462.715 243.133C461.259 243.507 459.893 244.173 458.702 245.092C457.512 246.01 456.52 247.162 455.789 248.476C455.058 249.79 454.601 251.239 454.449 252.735C454.296 254.232 454.449 255.743 454.899 257.178L475.6 325.418L486.43 367.413C484.853 368.618 483.684 370.279 483.084 372.17C482.483 374.062 482.479 376.092 483.073 377.986C483.666 379.88 484.829 381.545 486.402 382.755C487.975 383.965 489.882 384.662 491.865 384.751C493.847 384.839 495.809 384.315 497.483 383.25C499.158 382.184 500.464 380.629 501.224 378.796C501.984 376.963 502.161 374.94 501.731 373.002C501.301 371.065 500.286 369.307 498.822 367.966L494.047 317.184Z" fill="#A0616A"/>
<path d="M343.447 302.917L397.826 261.067C400.124 259.287 401.631 256.675 402.02 253.794C402.41 250.913 401.651 247.995 399.908 245.668C399.006 244.465 397.868 243.458 396.565 242.708C395.261 241.958 393.818 241.482 392.324 241.309C390.83 241.135 389.317 241.267 387.876 241.697C386.435 242.128 385.096 242.847 383.942 243.811L328.789 289.014L294.118 315.069C292.402 314.071 290.421 313.626 288.444 313.794C286.466 313.962 284.588 314.734 283.065 316.006C281.542 317.278 280.447 318.989 279.929 320.904C279.412 322.82 279.497 324.849 280.173 326.715C280.849 328.581 282.082 330.194 283.707 331.334C285.331 332.475 287.267 333.088 289.252 333.089C291.236 333.091 293.173 332.482 294.8 331.344C296.426 330.207 297.663 328.597 298.342 326.732L343.447 302.917Z" fill="#A0616A"/>
<path d="M387.768 312.537L385.371 366.07L460.632 349.712C454.226 328.202 449.87 324.533 454.684 309.562L387.768 312.537Z" fill="#A0616A"/>
<path d="M434.044 214.396H408.967L398.197 232.824L393.066 232.541C390.556 232.402 388.044 232.777 385.684 233.642C383.324 234.507 381.165 235.844 379.339 237.572C377.514 239.3 376.059 241.382 375.066 243.691C374.072 245.999 373.559 248.487 373.559 251L379.882 260.8C379.882 260.8 368.574 280.507 384.863 290.202C384.863 290.202 381.957 308.468 384.863 308.272C387.768 308.075 394.459 304.358 387.768 308.075C381.076 311.793 381.575 312.292 382.441 313.158L383.307 314.023L453.669 325.838C453.669 325.838 455.728 312.198 455.949 309.765C456.171 307.332 454.684 313.28 456.171 307.332C457.658 301.384 459.889 303.614 457.658 301.384C455.428 299.153 472.111 271.519 465.256 260.8L476.246 250.081C476.246 239.799 459.732 231.464 449.45 231.464H448.133L434.044 214.396Z" fill="#86869D"/>
<path d="M373.623 661.121H363.473L358.644 621.971L373.624 621.972L373.623 661.121Z" fill="#A0616A"/>
<path d="M342.987 676.098C342.992 677.235 343.446 678.324 344.249 679.129C345.052 679.933 346.14 680.389 347.277 680.396H366.384L366.976 679.169L369.679 673.592L370.726 679.169L370.957 680.396H378.164L378.061 679.161L376.139 656.115L373.626 655.961L362.764 655.317L360.095 655.154V662.035C358.071 664.189 342.181 672.331 342.987 676.098Z" fill="#2F2E41"/>
<path d="M524.471 634.536L515.934 640.027L490.692 609.714L503.291 601.61L524.471 634.536Z" fill="#A0616A"/>
<path d="M506.809 663.705C507.428 664.659 508.398 665.33 509.509 665.572C510.62 665.814 511.782 665.608 512.742 664.999L528.811 654.662L528.645 653.31L527.901 647.157L531.798 651.281L532.657 652.188L538.718 648.289L537.963 647.305L523.879 628.964L521.681 630.194L512.198 635.53L509.866 636.836L513.589 642.623C513.051 645.53 504.093 660.974 506.809 663.705Z" fill="#2F2E41"/>
<path d="M571.819 682.476L257.526 682.782C257.212 682.781 256.912 682.655 256.69 682.432C256.469 682.21 256.345 681.909 256.345 681.595C256.345 681.282 256.469 680.981 256.69 680.759C256.912 680.536 257.212 680.41 257.526 680.409L571.819 680.103C572.133 680.104 572.433 680.23 572.655 680.452C572.876 680.675 573 680.976 573 681.289C573 681.603 572.876 681.904 572.655 682.126C572.433 682.349 572.133 682.474 571.819 682.476Z" fill="#CACACA"/>
<path d="M459.452 343.665C459.452 343.665 411.344 369.112 385.899 351.751C385.899 351.751 380.332 378.709 378.102 380.94C375.871 383.17 372.318 384.142 374.838 386.63C377.358 389.119 378.761 392.479 373.971 396.747C369.18 401.015 364.403 399.661 369.022 404.055C373.641 408.45 355.053 516.259 355.053 516.259C355.053 516.259 358.027 616.518 355.053 619.55C352.079 622.582 348.104 623.261 351.95 627.011C355.796 630.761 355.797 627.852 355.797 633.024V638.196L357.556 643.336H381.697C381.697 643.336 387.523 636.568 381.697 630.69C375.871 624.813 383.47 623.204 385.247 617.689C387.024 612.173 389.998 618.121 387.024 612.173C384.05 606.225 382.622 607.356 382.592 603.445C382.563 599.533 426.43 446.369 426.43 446.369L431.743 531.143L495.652 623.985L514.463 609.877C514.463 609.877 500.768 590.597 503.97 587.946C507.173 585.296 494.531 581.971 498.517 578.982C502.504 575.992 492.907 572.979 496.524 569.015C500.141 565.052 491.541 555.062 486.558 555.062C481.575 555.062 474.581 538.41 474.581 538.41L485.021 406.863L459.452 343.665Z" fill="#2F2E41"/>
<path d="M408.462 160.285C408.122 160.732 405.409 160.491 402.148 160.015C395.698 159.073 394.819 160.192 389.998 164.578C383.014 170.93 386.985 209.678 383.553 218.073L382.444 218.89C384.644 218.47 386.803 217.866 388.901 217.083C390.086 213.345 391.274 209.594 392.471 205.858C393.6 208.765 394.31 211.817 394.579 214.924C396.239 214.269 397.89 212.669 404.826 210.522C408.32 208.153 433.591 205.77 436.84 204.727C445.085 176.674 431.797 165.329 408.462 160.285Z" fill="#2F2E41"/>
<path d="M416.995 203.544C430.332 203.544 441.144 192.732 441.144 179.395C441.144 166.057 430.332 155.245 416.995 155.245C403.657 155.245 392.845 166.057 392.845 179.395C392.845 192.732 403.657 203.544 416.995 203.544Z" fill="#A0616A"/>
<path d="M432.199 158.156C430.838 157.955 429.528 157.496 428.34 156.803C427.75 156.447 427.273 155.933 426.962 155.318C426.652 154.704 426.52 154.015 426.582 153.33C426.88 151.614 428.82 150.589 430.558 150.694C432.289 150.943 433.933 151.609 435.35 152.633C435.195 150.975 434.486 149.417 433.339 148.21C432.191 147.003 430.671 146.216 429.023 145.977C431.309 145.854 433.686 145.745 435.8 146.624C437.915 147.504 439.676 149.681 439.295 151.939C442.849 151.481 446.354 153.957 447.822 157.227C449.289 160.496 448.998 164.336 447.826 167.722C447.71 168.241 447.485 168.729 447.164 169.153C446.843 169.576 446.436 169.926 445.968 170.178C444.771 170.632 443.484 169.871 442.448 169.121C437.034 165.201 432.106 160.649 427.769 155.563" fill="#2F2E41"/>
<path d="M442.728 205.069C441.705 205.551 442.238 207.344 441.442 208.147C441.097 208.487 440.68 208.746 440.223 208.906C440.103 207.409 439.755 205.94 439.189 204.549C439.085 204.296 438.914 204.013 438.647 204.036C438.334 204.073 438.252 204.482 438.245 204.787C438.182 206.299 437.847 207.787 437.256 209.181C437.249 209.196 437.241 209.218 437.234 209.233C437.003 209.225 436.765 209.218 436.542 209.211C434.817 209.144 430.996 204.712 430.148 206.214C433.137 200.913 436.78 192.942 437.338 186.883C437.531 185.614 437.437 184.318 437.063 183.091C436.867 182.48 436.501 181.939 436.007 181.53C435.512 181.121 434.911 180.863 434.275 180.786C433.961 180.772 433.647 180.827 433.357 180.948C433.067 181.069 432.807 181.252 432.596 181.485C432.385 181.718 432.228 181.995 432.137 182.296C432.045 182.597 432.021 182.914 432.066 183.225L431.635 183.165C427.635 179.909 431.085 174.251 426.431 172.013C424.854 171.254 415.204 173.79 413.501 173.344C413.464 171.55 413.099 169.778 412.423 168.117C412.319 167.864 412.148 167.581 411.88 167.604C411.568 167.641 411.486 168.05 411.479 168.354C411.416 169.867 411.081 171.355 410.49 172.749C408.131 172.414 405.73 172.54 403.419 173.12C401.382 173.656 399.449 174.578 397.404 175.068C396.393 175.378 395.33 175.479 394.279 175.364C393.228 175.248 392.212 174.92 391.292 174.399C388.697 172.659 388.244 168.808 389.537 165.968C390.474 164.145 391.739 162.512 393.27 161.15C394.437 160.02 395.649 158.934 396.861 157.849C397.947 156.875 399.032 155.901 400.118 154.927C401.484 153.64 402.94 152.453 404.475 151.373C406.925 149.767 409.677 148.679 412.563 148.175C415.448 147.671 418.407 147.762 421.256 148.443C424.676 149.261 429.249 148.109 432.379 149.707C434.014 150.547 437.635 153.767 439.07 154.912C442.743 157.834 440.258 155.453 444.275 157.142C453.854 161.171 449.618 201.826 442.728 205.069Z" fill="#2F2E41"/>
<path d="M175.339 381.334C258.052 381.334 325.104 314.282 325.104 231.568C325.104 148.855 258.052 81.8027 175.339 81.8027C92.6256 81.8027 25.5732 148.855 25.5732 231.568C25.5732 314.282 92.6256 381.334 175.339 381.334Z" fill="white"/>
<path d="M175.339 382.829C91.9339 382.829 24.0786 314.973 24.0786 231.568C24.0786 148.163 91.9339 80.3076 175.339 80.3076C258.744 80.3076 326.6 148.163 326.6 231.568C326.6 314.973 258.744 382.829 175.339 382.829ZM175.339 83.2975C93.5826 83.2975 27.0685 149.812 27.0685 231.568C27.0685 313.325 93.5826 379.839 175.339 379.839C257.096 379.839 323.61 313.325 323.61 231.568C323.61 149.812 257.096 83.2975 175.339 83.2975Z" fill="#087DF1"/>
<path d="M154.908 309.514C152.322 309.514 149.771 308.912 147.458 307.755C145.145 306.598 143.133 304.918 141.582 302.849L100.724 248.37C99.411 246.62 98.456 244.629 97.9132 242.509C97.3703 240.39 97.2501 238.185 97.5596 236.019C97.8691 233.853 98.602 231.77 99.7167 229.887C100.831 228.005 102.306 226.361 104.056 225.048C105.806 223.735 107.798 222.78 109.917 222.238C112.036 221.695 114.242 221.575 116.408 221.884C118.573 222.193 120.657 222.926 122.539 224.041C124.422 225.156 126.066 226.63 127.379 228.381L154.11 264.019L222.764 161.038C225.217 157.365 229.027 154.815 233.358 153.951C237.689 153.086 242.187 153.976 245.862 156.426C249.536 158.876 252.088 162.685 252.956 167.015C253.823 171.346 252.935 175.844 250.488 179.52L168.771 302.095C167.293 304.312 165.305 306.142 162.973 307.432C160.642 308.722 158.035 309.434 155.372 309.509C155.217 309.511 155.063 309.514 154.908 309.514Z" fill="#087DF1"/>
<path d="M329.641 91.16C330.058 88.2966 327.059 85.49 322.943 84.8912C318.827 84.2923 315.153 86.128 314.736 88.9913C314.319 91.8546 317.318 94.6613 321.434 95.2601C325.55 95.859 329.225 94.0233 329.641 91.16Z" fill="#86869D"/>
<path d="M378.646 86.3778C379.063 83.5145 376.064 80.7079 371.948 80.109C367.832 79.5101 364.157 81.3458 363.741 84.2091C363.324 87.0724 366.323 89.879 370.439 90.4779C374.555 91.0768 378.23 89.2411 378.646 86.3778Z" fill="#3F3D56"/>
<path d="M316.222 51.4861C316.638 48.6228 313.639 45.8162 309.523 45.2173C305.407 44.6185 301.733 46.4541 301.316 49.3174C300.9 52.1808 303.899 54.9874 308.015 55.5863C312.131 56.1852 315.805 54.3494 316.222 51.4861Z" fill="#FF6584"/>
<path d="M294.928 35.2348C294.948 32.6062 293.482 30.4641 291.653 30.4502C289.824 30.4364 288.326 32.5561 288.306 35.1848C288.286 37.8134 289.752 39.9555 291.581 39.9694C293.41 39.9832 294.908 37.8635 294.928 35.2348Z" fill="#86869D"/>
<path d="M287.707 4.96629C287.726 2.33765 286.26 0.195505 284.432 0.181678C282.603 0.16785 281.104 2.28758 281.085 4.91621C281.065 7.54484 282.531 9.68699 284.36 9.70082C286.188 9.71465 287.687 7.59492 287.707 4.96629Z" fill="#3F3D56"/>
<path d="M343.862 58.2378C343.882 55.6091 342.415 53.467 340.587 53.4532C338.758 53.4393 337.26 55.5591 337.24 58.1877C337.22 60.8163 338.686 62.9585 340.515 62.9723C342.343 62.9861 343.842 60.8664 343.862 58.2378Z" fill="#86869D"/>
<path d="M320.18 70.0611C320.2 67.4324 318.734 65.2903 316.905 65.2765C315.076 65.2626 313.578 67.3824 313.558 70.011C313.538 72.6396 315.004 74.7817 316.833 74.7955C318.662 74.8094 320.16 72.6897 320.18 70.0611Z" fill="#FF6584"/>
<path d="M353.146 91.9146C353.166 89.286 351.699 87.1438 349.871 87.13C348.042 87.1162 346.544 89.2359 346.524 91.8645C346.504 94.4931 347.97 96.6352 349.799 96.6491C351.627 96.6629 353.126 94.5432 353.146 91.9146Z" fill="#3F3D56"/>
<path d="M48.5926 445.959C49.0092 443.096 46.0102 440.289 41.8942 439.69C37.7782 439.091 34.1038 440.927 33.6872 443.79C33.2706 446.653 36.2695 449.46 40.3855 450.059C44.5015 450.658 48.176 448.822 48.5926 445.959Z" fill="#86869D"/>
<path d="M97.5982 441.178C98.0148 438.314 95.0158 435.508 90.8998 434.909C86.7838 434.31 83.1094 436.146 82.6928 439.009C82.2762 441.872 85.2751 444.679 89.3912 445.278C93.5072 445.877 97.1816 444.041 97.5982 441.178Z" fill="#3F3D56"/>
<path d="M35.1734 406.285C35.59 403.422 32.591 400.615 28.475 400.016C24.359 399.417 20.6846 401.253 20.268 404.116C19.8514 406.98 22.8504 409.786 26.9664 410.385C31.0824 410.984 34.7568 409.148 35.1734 406.285Z" fill="#FF6584"/>
<path d="M13.8792 390.034C13.8991 387.405 12.4328 385.263 10.6042 385.249C8.77558 385.235 7.27706 387.355 7.25718 389.984C7.23731 392.612 8.7036 394.754 10.5322 394.768C12.3608 394.782 13.8593 392.662 13.8792 390.034Z" fill="#86869D"/>
<path d="M6.65798 359.765C6.67786 357.136 5.21159 354.994 3.38298 354.981C1.55436 354.967 0.055868 357.086 0.0359908 359.715C0.0161137 362.344 1.48238 364.486 3.31099 364.5C5.13961 364.513 6.6381 362.394 6.65798 359.765Z" fill="#3F3D56"/>
<path d="M62.813 413.037C62.8329 410.408 61.3666 408.266 59.538 408.252C57.7094 408.238 56.2109 410.358 56.191 412.987C56.1711 415.615 57.6374 417.757 59.466 417.771C61.2946 417.785 62.7931 415.665 62.813 413.037Z" fill="#86869D"/>
<path d="M39.1314 424.86C39.1513 422.231 37.685 420.089 35.8564 420.075C34.0278 420.061 32.5293 422.181 32.5094 424.81C32.4895 427.438 33.9558 429.581 35.7844 429.594C37.613 429.608 39.1116 427.488 39.1314 424.86Z" fill="#FF6584"/>
<path d="M72.0972 446.713C72.1171 444.085 70.6508 441.943 68.8222 441.929C66.9935 441.915 65.4951 444.035 65.4752 446.663C65.4553 449.292 66.9216 451.434 68.7502 451.448C70.5788 451.462 72.0773 449.342 72.0972 446.713Z" fill="#3F3D56"/>
</svg>
