<svg width="556" height="622" viewBox="0 0 556 622" fill="none" xmlns="http://www.w3.org/2000/svg">
<path d="M282.704 16.0132L279.934 11.7329C280.755 9.46404 281.704 7.24332 282.776 5.08132L284.566 6.52782L283.148 4.3363C284.5 1.67608 285.563 0 285.563 0C285.563 0 291.118 8.75308 292.974 18.0206L289.419 23.5133L293.354 20.3354C293.494 21.4149 293.566 22.5022 293.57 23.5908C293.57 34.5667 289.985 43.4644 285.563 43.4644C281.141 43.4644 277.557 34.5667 277.557 23.5908C277.64 20.0988 278.257 16.6402 279.388 13.3353L282.704 16.0132Z" fill="#BDBDBD"/>
<path d="M263.1 25.5286L258.115 24.4604C257.091 22.2753 256.192 20.0342 255.421 17.7478L257.71 17.5043L255.158 16.9573C254.232 14.1207 253.799 12.1836 253.799 12.1836C253.799 12.1836 263.916 14.4453 271.781 19.6862L273.152 26.0832L273.687 21.054C274.55 21.7183 275.369 22.4361 276.142 23.2033C283.903 30.9644 287.66 39.7908 284.533 42.9176C281.406 46.0443 272.58 42.2875 264.819 34.5264C262.408 31.9985 260.399 29.1161 258.862 25.9795L263.1 25.5286Z" fill="#BDBDBD"/>
<path d="M261.279 67.9996C272.839 68.739 285.435 67.9566 298.834 67.9996V37.3207C287.027 39.1588 274.436 38.97 261.279 37.3207V67.9996Z" fill="#BDBDBD"/>
<path d="M178.578 91.9216L176.772 89.1302C177.307 87.6506 177.926 86.2024 178.625 84.7925L179.793 85.7358L178.868 84.3066C179.749 82.5718 180.443 81.4787 180.443 81.4787C182.668 85.1144 184.299 89.0815 185.275 93.2307L182.958 96.8127L185.524 94.7403C185.615 95.4443 185.662 96.1534 185.664 96.8633C185.664 104.021 183.327 109.824 180.443 109.824C177.559 109.824 175.221 104.021 175.221 96.8633C175.275 94.586 175.678 92.3305 176.416 90.1753L178.578 91.9216Z" fill="#BDBDBD"/>
<path d="M165.794 98.1271L162.543 97.4304C161.875 96.0054 161.289 94.5439 160.786 93.0529L162.279 92.894L160.614 92.5373C160.011 90.6874 159.728 89.4242 159.728 89.4242C163.872 90.4216 167.831 92.0732 171.455 94.317L172.349 98.4887L172.698 95.209C173.26 95.6422 173.795 96.1103 174.299 96.6106C179.36 101.672 181.81 107.428 179.771 109.467C177.732 111.506 171.976 109.056 166.914 103.995C165.342 102.346 164.032 100.467 163.03 98.421L165.794 98.1271Z" fill="#BDBDBD"/>
<path d="M164.606 125.824C172.145 126.306 180.359 125.796 189.097 125.824V105.817C180.973 106.955 172.73 106.955 164.606 105.817V125.824Z" fill="#BDBDBD"/>
<path d="M169.261 185.117C175.918 185.542 183.171 185.092 190.887 185.117V167.45C183.714 168.455 176.435 168.455 169.261 167.45V185.117Z" fill="#BDBDBD"/>
<path d="M131.278 65.8421H422.284V73.9708H131.278V65.8421Z" fill="#BDBDBD"/>
<path d="M131.278 123.556H422.284V131.684H131.278V123.556Z" fill="#BDBDBD"/>
<path d="M131.278 181.269H422.284V189.398H131.278V181.269Z" fill="#BDBDBD"/>
<path d="M180.05 173.953C171.071 173.953 163.792 166.675 163.792 157.696C163.792 148.717 171.071 141.439 180.05 141.439C189.028 141.439 196.307 148.717 196.307 157.696C196.307 166.675 189.028 173.953 180.05 173.953Z" fill="#BDBDBD"/>
<path d="M180.05 170.702C172.867 170.702 167.044 164.879 167.044 157.696C167.044 150.513 172.867 144.69 180.05 144.69C187.233 144.69 193.056 150.513 193.056 157.696C193.056 164.879 187.233 170.702 180.05 170.702Z" fill="white"/>
<path d="M180.05 160.947C178.254 160.947 176.798 159.492 176.798 157.696C176.798 155.9 178.254 154.444 180.05 154.444C181.845 154.444 183.301 155.9 183.301 157.696C183.301 159.492 181.845 160.947 180.05 160.947Z" fill="#BDBDBD"/>
<path d="M168.67 158.509V156.883H181.675V158.509H168.67Z" fill="#BDBDBD"/>
<path d="M180.863 159.322H179.237V146.316H180.863V159.322Z" fill="#BDBDBD"/>
<path d="M274.052 83.9012H284.808V126.48H274.052V83.9012Z" fill="#BDBDBD"/>
<path d="M274.052 90.6242H284.808V95.5543H274.052V90.6242Z" fill="white"/>
<path d="M274.052 112.138H284.808V117.068H274.052V112.138Z" fill="white"/>
<path d="M290.635 83.9012H301.392V126.48H290.635V83.9012Z" fill="#BDBDBD"/>
<path d="M290.635 90.6242H301.392V95.5543H290.635V90.6242Z" fill="white"/>
<path d="M290.635 112.138H301.392V117.068H290.635V112.138Z" fill="white"/>
<path d="M264.784 83.7252L274.423 88.4978L255.532 126.656L245.892 121.883L264.784 83.7252Z" fill="#BDBDBD"/>
<path d="M261.801 89.7501L271.441 94.5228L269.253 98.9411L259.613 94.1684L261.801 89.7501Z" fill="white"/>
<path d="M252.255 109.03L261.895 113.803L259.708 118.221L250.068 113.448L252.255 109.03Z" fill="white"/>
<path d="M369.97 141.615H380.727V184.193H369.97V141.615Z" fill="#BDBDBD"/>
<path d="M369.97 148.338H380.727V153.268H369.97V148.338Z" fill="white"/>
<path d="M369.97 169.851H380.727V174.781H369.97V169.851Z" fill="white"/>
<path d="M386.553 141.615H397.31V184.193H386.553V141.615Z" fill="#BDBDBD"/>
<path d="M386.553 148.338H397.31V153.268H386.553V148.338Z" fill="white"/>
<path d="M386.553 169.851H397.31V174.781H386.553V169.851Z" fill="white"/>
<path d="M360.702 141.439L370.342 146.211L351.45 184.369L341.81 179.597L360.702 141.439Z" fill="#BDBDBD"/>
<path d="M357.719 147.464L367.359 152.236L365.171 156.655L355.531 151.882L357.719 147.464Z" fill="white"/>
<path d="M348.173 166.743L357.813 171.516L355.626 175.934L345.986 171.162L348.173 166.743Z" fill="white"/>
<path d="M269.174 141.615H279.931V184.193H269.174V141.615Z" fill="#BDBDBD"/>
<path d="M269.174 148.338H279.931V153.268H269.174V148.338Z" fill="white"/>
<path d="M269.174 169.851H279.931V174.781H269.174V169.851Z" fill="white"/>
<path d="M285.758 141.615H296.514V184.193H285.758V141.615Z" fill="#BDBDBD"/>
<path d="M285.758 148.338H296.514V153.268H285.758V148.338Z" fill="white"/>
<path d="M285.758 169.851H296.514V174.781H285.758V169.851Z" fill="white"/>
<path d="M259.906 141.439L269.546 146.211L250.655 184.369L241.015 179.597L259.906 141.439Z" fill="#BDBDBD"/>
<path d="M256.923 147.464L266.563 152.236L264.376 156.655L254.736 151.882L256.923 147.464Z" fill="white"/>
<path d="M247.378 166.743L257.018 171.516L254.831 175.934L245.191 171.162L247.378 166.743Z" fill="white"/>
<path d="M154.038 26.0599H196.79V68.8119H154.038V26.0599Z" fill="#BDBDBD"/>
<path d="M162.588 34.6104H188.24V60.2615H162.588V34.6104Z" fill="white"/>
<path d="M180.814 43.2206L175.375 52.6409L169.936 62.0613H180.814H191.692L186.253 52.6409L180.814 43.2206Z" fill="#BDBDBD"/>
<path d="M171.364 45.0207L165.924 54.441L160.486 63.8614H171.364H182.242L176.802 54.441L171.364 45.0207Z" fill="#BDBDBD"/>
<path d="M167.539 42.2607C165.799 42.2607 164.388 40.8503 164.388 39.1106C164.388 37.3708 165.799 35.9604 167.539 35.9604C169.278 35.9604 170.689 37.3708 170.689 39.1106C170.689 40.8503 169.278 42.2607 167.539 42.2607Z" fill="#BDBDBD"/>
<path d="M370.26 26.0599H413.012V68.8119H370.26V26.0599Z" fill="#BDBDBD"/>
<path d="M378.811 34.6104H404.462V60.2615H378.811V34.6104Z" fill="white"/>
<path d="M397.036 43.2206L391.598 52.6409L386.158 62.0613H397.036H407.914L402.476 52.6409L397.036 43.2206Z" fill="#BDBDBD"/>
<path d="M387.586 45.0207L382.147 54.441L376.708 63.8614H387.586H398.464L393.025 54.441L387.586 45.0207Z" fill="#BDBDBD"/>
<path d="M383.761 42.2607C382.021 42.2607 380.611 40.8503 380.611 39.1106C380.611 37.3708 382.021 35.9604 383.761 35.9604C385.501 35.9604 386.911 37.3708 386.911 39.1106C386.911 40.8503 385.501 42.2607 383.761 42.2607Z" fill="#BDBDBD"/>
<path d="M498.926 317.586L496.156 313.306C496.978 311.037 497.926 308.816 498.998 306.654L500.789 308.101L499.371 305.909C500.722 303.249 501.785 301.573 501.785 301.573C501.785 301.573 507.34 310.326 509.196 319.594L505.642 325.086L509.576 321.908C509.716 322.988 509.788 324.075 509.792 325.164C509.792 336.14 506.207 345.037 501.785 345.037C497.364 345.037 493.779 336.14 493.779 325.164C493.862 321.672 494.48 318.213 495.611 314.908L498.926 317.586Z" fill="#087DF1"/>
<path d="M479.322 327.102L474.337 326.034C473.314 323.848 472.414 321.607 471.643 319.321L473.932 319.077L471.38 318.531C470.454 315.694 470.021 313.757 470.021 313.757C470.021 313.757 480.138 316.018 488.004 321.259L489.374 327.656L489.909 322.627C490.772 323.291 491.592 324.009 492.364 324.777C500.125 332.538 503.882 341.364 500.755 344.491C497.628 347.618 488.802 343.861 481.041 336.1C478.63 333.572 476.621 330.689 475.084 327.553L479.322 327.102Z" fill="#087DF1"/>
<path d="M477.501 369.573C489.061 370.312 501.657 369.53 515.057 369.573V338.894C503.249 340.732 490.658 340.543 477.501 338.894V369.573Z" fill="#3F3D56"/>
<path d="M-7.62939e-05 379.202H156.07V581.605H-7.62939e-05V379.202Z" fill="#BDBDBD"/>
<path d="M473.901 389.769H482.029V581.605H473.901V389.769Z" fill="#BDBDBD"/>
<path d="M-6.10352e-05 365.383H556V381.64H-6.10352e-05V365.383Z" fill="#BDBDBD"/>
<path d="M469.836 381.64H486.094V397.898H469.836V381.64Z" fill="#BDBDBD"/>
<path d="M65.7403 390.988L66.6551 394.647H89.4153L90.7867 390.988H148.754V428.381H7.31594V390.988H65.7403Z" fill="#3F3D56"/>
<path d="M65.7403 438.134L66.6551 441.792H89.4153L90.7867 438.134H148.754V475.526H7.31594V438.134H65.7403Z" fill="#3F3D56"/>
<path d="M65.7403 485.281L66.6551 488.939H89.4153L90.7867 485.281H148.754V522.673H7.31594V485.281H65.7403Z" fill="#3F3D56"/>
<path d="M65.7403 532.427L66.6551 536.085H89.4153L90.7867 532.427H148.754V569.819H7.31594V532.427H65.7403Z" fill="#3F3D56"/>
<path d="M254.427 362.944H302.386L300.76 341.81H256.053L254.427 362.944Z" fill="#BDBDBD"/>
<path d="M251.175 360.506H304.825V365.383H251.175V360.506Z" fill="#BDBDBD"/>
<path d="M186.553 205.655H369.854C371.147 205.655 372.388 206.169 373.302 207.084C374.217 207.998 374.731 209.239 374.731 210.532V322.301H181.675V210.532C181.675 209.239 182.189 207.998 183.104 207.084C184.019 206.169 185.259 205.655 186.553 205.655Z" fill="#3F3D56"/>
<path d="M374.731 322.301V340.591C374.731 341.884 374.217 343.125 373.302 344.039C372.388 344.954 371.147 345.468 369.854 345.468H186.553C185.259 345.468 184.019 344.954 183.104 344.039C182.189 343.125 181.675 341.884 181.675 340.591V322.301H374.731Z" fill="#BDBDBD"/>
<path d="M191.023 215.816H364.977V313.36H191.023V215.816Z" fill="white"/>
<path d="M278 338.559C275.306 338.559 273.123 336.375 273.123 333.681C273.123 330.988 275.306 328.804 278 328.804C280.694 328.804 282.877 330.988 282.877 333.681C282.877 336.375 280.694 338.559 278 338.559Z" fill="#3F3D56"/>
<path d="M261.663 243.35H308.566V246.042H261.663V243.35Z" fill="#3F3D56"/>
<path d="M236.137 253.171H308.566V255.864H236.137V253.171Z" fill="#087DF1"/>
<path d="M249.538 262.424H308.566V265.117H249.538V262.424Z" fill="#087DF1"/>
<path d="M274.107 271.642H308.566V274.335H274.107V271.642Z" fill="#3F3D56"/>
<path d="M256.558 280.86H308.566V283.553H256.558V280.86Z" fill="#3F3D56"/>
<path d="M324.2 242.393H329.944V248.136H324.2V242.393Z" fill="#3F3D56"/>
<path d="M324.2 251.646H329.944V257.389H324.2V251.646Z" fill="#087DF1"/>
<path d="M324.2 260.899H329.944V266.642H324.2V260.899Z" fill="#087DF1"/>
<path d="M324.2 270.152H329.944V275.895H324.2V270.152Z" fill="#3F3D56"/>
<path d="M324.2 279.405H329.944V285.148H324.2V279.405Z" fill="#3F3D56"/>
<path d="M199.083 238.253H223.696C225.375 228.543 225.375 218.616 223.696 208.906H199.083C201.855 218.492 201.855 228.667 199.083 238.253Z" fill="#087DF1"/>
<path d="M378.175 297.071L388.301 294.602C392.165 294.607 395.982 293.753 399.475 292.102C402.968 290.45 406.051 288.043 408.499 285.054C410.948 282.065 412.702 278.569 413.633 274.819C414.565 271.069 414.651 267.158 413.886 263.371C413.897 254.334 410.318 245.663 403.936 239.265C397.554 232.867 388.892 229.266 379.855 229.254C370.818 229.243 362.147 232.822 355.749 239.204C349.35 245.586 345.75 254.248 345.738 263.285C339.997 283.265 357.978 301.994 378.175 297.071Z" fill="#2F2E41"/>
<path d="M367.114 300.633C353.287 300.633 342.078 289.424 342.078 275.596C342.078 261.769 353.287 250.56 367.114 250.56C380.942 250.56 392.151 261.769 392.151 275.596C392.151 289.424 380.942 300.633 367.114 300.633Z" fill="#FFB8B8"/>
<path d="M383.442 288.659C383.442 288.659 391.062 314.784 395.416 316.961C399.771 319.138 360.583 322.404 360.583 322.404C360.583 322.404 361.672 297.367 359.494 295.19C357.317 293.013 383.442 288.659 383.442 288.659Z" fill="#FFB8B8"/>
<path d="M344.255 449.764C344.255 449.764 295.27 445.41 288.739 461.738C282.208 478.066 293.093 574.947 293.093 574.947H313.775V495.483C313.775 495.483 401.962 470.416 401.962 461.708C401.962 452.999 344.255 449.764 344.255 449.764Z" fill="#2F2E41"/>
<path d="M296.359 570.593L285.473 574.947C285.473 574.947 272.411 573.859 277.853 583.655C279.411 586.499 281.591 588.955 284.229 590.84C286.868 592.724 289.898 593.99 293.093 594.541C293.093 594.541 313.775 602.161 314.864 594.541C315.952 586.921 309.421 571.681 309.421 571.681L296.359 570.593Z" fill="#2F2E41"/>
<path d="M371.468 449.764C371.468 449.764 322.484 445.41 315.953 461.738C309.421 478.066 320.307 574.947 320.307 574.947H340.989V495.483C340.989 495.483 403.588 480.983 403.588 472.275C403.588 468.184 407.853 447.392 400.336 443.012C391.852 438.068 371.468 449.764 371.468 449.764Z" fill="#2F2E41"/>
<path d="M323.572 570.593L312.687 574.947C312.687 574.947 299.624 573.859 305.067 583.655C306.625 586.499 308.804 588.955 311.443 590.84C314.082 592.724 317.111 593.99 320.307 594.541C320.307 594.541 340.989 602.161 342.078 594.541C343.166 586.921 336.635 571.681 336.635 571.681L323.572 570.593Z" fill="#2F2E41"/>
<path d="M394.328 313.696L361.615 317.251C356.566 317.8 351.82 319.93 348.054 323.337C344.288 326.745 341.695 331.255 340.645 336.224L327.927 396.425C327.927 396.425 323.572 456.295 332.281 459.561C340.989 462.827 352.963 446.498 369.291 448.676C385.62 450.853 406.846 455.751 406.846 455.751C406.846 455.751 410.217 348.586 410.656 339.821C411.534 322.298 394.328 313.696 394.328 313.696Z" fill="#86869D"/>
<path d="M316.839 452.874L303.409 460.783C303.409 460.783 279.315 457.326 280.067 465.795C280.819 474.263 307.119 472.627 307.119 472.627L323.304 462.654L316.839 452.874Z" fill="#FFB8B8"/>
<path d="M415.71 255.234C406.778 255.234 399.538 247.993 399.538 239.061C399.538 230.129 406.778 222.888 415.71 222.888C424.642 222.888 431.883 230.129 431.883 239.061C431.883 247.993 424.642 255.234 415.71 255.234Z" fill="#2F2E41"/>
<path d="M400.788 230.367C400.79 227.975 401.323 225.613 402.348 223.451C403.373 221.29 404.866 219.383 406.717 217.868C408.569 216.353 410.734 215.268 413.055 214.692C415.377 214.115 417.798 214.061 420.143 214.533C418.074 213.555 415.821 213.027 413.532 212.986C411.244 212.944 408.973 213.388 406.869 214.29C404.766 215.191 402.877 216.529 401.329 218.215C399.782 219.901 398.609 221.896 397.89 224.069C397.171 226.242 396.922 228.543 397.158 230.819C397.395 233.096 398.112 235.296 399.263 237.274C400.413 239.253 401.971 240.964 403.832 242.296C405.694 243.627 407.817 244.548 410.061 244.998C407.286 243.691 404.94 241.621 403.298 239.03C401.656 236.439 400.786 233.434 400.788 230.367Z" fill="#2F2E41"/>
<path d="M386.914 239.539L365.111 235.525L348.343 246.034C344.221 248.617 340.926 252.329 338.849 256.729C336.772 261.128 336.001 266.031 336.627 270.856L353.42 266.599L357.18 257.17L361.659 264.511L385.075 294.646L398.223 286.274L409.943 267.906L386.914 239.539Z" fill="#2F2E41"/>
<path d="M368.959 322.955L358.073 317.513C358.073 317.513 335.214 320.778 330.86 336.018C326.506 351.258 306.912 456.847 306.912 456.847L325.417 465.555L351.542 401.331L368.959 322.955Z" fill="#86869D"/>
<path opacity="0.2" d="M359.693 365.79L348.798 408.078L329.478 455.572L330.148 457.216L353.19 408.872L359.693 365.79Z" fill="black"/>
<path d="M440.982 599.003L444.825 597.679L407.605 487.127L402.225 488.981L440.982 599.003Z" fill="#3F3D56"/>
<path d="M298.726 599.003L294.883 597.679L332.103 487.127L337.482 488.981L298.726 599.003Z" fill="#3F3D56"/>
<path d="M377.372 621.835L373.308 621.849L372.045 492.616L377.735 492.596L377.372 621.835Z" fill="#3F3D56"/>
<path d="M450.389 422.169L439.241 467.227C437.68 473.537 434.429 479.302 429.838 483.904C425.248 488.506 419.49 491.771 413.184 493.347C382.092 501.12 349.541 500.911 318.552 492.738L301.907 488.348C292.235 485.797 284.962 477.49 284.274 467.512C283.995 463.984 284.634 460.445 286.129 457.237C286.194 457.099 286.259 456.962 286.325 456.826C288.495 452.367 291.844 448.587 296.009 445.894C300.173 443.201 304.995 441.698 309.952 441.548L327.585 440.98L391.801 412.529C391.801 412.529 413.887 401.311 432.043 400.055C444.034 399.226 453.276 410.501 450.389 422.169Z" fill="#087DF1"/>
<path d="M58.9327 280.439H122.336V366.602H58.9327V280.439Z" fill="#BDBDBD"/>
<path d="M66.2485 290.381H115.02V356.66H66.2485V290.381Z" fill="white"/>
<path d="M72.1948 307.725H95.8251V310.418H72.1948V307.725Z" fill="#3F3D56"/>
<path d="M103.331 306.235H109.074V311.978H103.331V306.235Z" fill="#3F3D56"/>
<path d="M72.1948 319.106H95.8251V321.798H72.1948V319.106Z" fill="#3F3D56"/>
<path d="M103.331 317.615H109.074V323.358H103.331V317.615Z" fill="#3F3D56"/>
<path d="M72.1948 330.486H95.8251V333.178H72.1948V330.486Z" fill="#3F3D56"/>
<path d="M103.331 328.995H109.074V334.738H103.331V328.995Z" fill="#3F3D56"/>
<path d="M88.1958 285.316C88.1958 283.969 89.2876 282.877 90.6344 282.877C91.9812 282.877 93.073 283.969 93.073 285.316C93.073 286.663 91.9812 287.754 90.6344 287.754C89.2876 287.754 88.1958 286.663 88.1958 285.316Z" fill="#3F3D56"/>
</svg>
