<svg width="127" height="127" viewBox="0 0 127 127" fill="none" xmlns="http://www.w3.org/2000/svg">
<path d="M63.0132 0C28.2121 0 0 28.2121 0 63.0132C0 97.8144 28.2121 126.026 63.0132 126.026C97.8144 126.026 126.026 97.8144 126.026 63.0132C126.026 28.2121 97.8144 0 63.0132 0ZM101.629 101.629C92.054 111.176 79.2674 116.816 65.761 117.45C52.2546 118.084 38.9959 113.667 28.5684 105.059C18.1409 96.4513 11.2916 84.2698 9.35506 70.8879C7.41851 57.506 10.5335 43.8824 18.093 32.6718C25.6525 21.4611 37.115 13.4664 50.2471 10.2455C63.3791 7.02457 77.24 8.80814 89.1288 15.2487C101.018 21.6892 110.083 32.3253 114.558 45.0846C119.033 57.8438 118.598 71.8121 113.336 84.2678C110.594 90.7581 106.618 96.6543 101.629 101.629Z" fill="#FB6E90"/>
<path d="M41.2097 48.3105H40.7075C37.9461 48.3105 35.7075 50.5491 35.7075 53.3105V53.8128C35.7075 56.5742 37.9461 58.8128 40.7075 58.8128H41.2097C43.9711 58.8128 46.2097 56.5742 46.2097 53.8127V53.3105C46.2097 50.5491 43.9711 48.3105 41.2097 48.3105Z" fill="#FB6E90"/>
<path d="M85.3191 48.3105H84.8169C82.0555 48.3105 79.8169 50.5491 79.8169 53.3105V53.8128C79.8169 56.5742 82.0555 58.8128 84.8169 58.8128H85.3191C88.0805 58.8128 90.3191 56.5742 90.3191 53.8127V53.3105C90.3191 50.5491 88.0805 48.3105 85.3191 48.3105Z" fill="#FB6E90"/>
<path d="M63.0131 71.415C56.8874 71.422 51.0146 73.8585 46.6831 78.19C43.3501 81.523 41.1391 85.7687 40.2937 90.34C39.8717 92.6219 41.7908 94.5199 44.1115 94.5199C46.4302 94.5199 48.2521 92.6029 48.9054 90.3781C49.593 88.0361 50.8594 85.8802 52.6164 84.1232C55.3738 81.3659 59.1136 79.8168 63.0131 79.8168C66.9126 79.8168 70.6523 81.3659 73.4097 84.1232C75.1667 85.8802 76.4331 88.0361 77.1207 90.3781C77.774 92.6029 79.5959 94.5199 81.9146 94.5199C84.2353 94.5199 86.1544 92.6219 85.7324 90.34C84.887 85.7687 82.676 81.523 79.343 78.19C75.0115 73.8585 69.1387 71.422 63.0131 71.415Z" fill="#FB6E90"/>
</svg>
